<svg xmlns="http://www.w3.org/2000/svg" viewBox="0 0 760 220" role="img" aria-labelledby="title desc">
  <title id="title">CourseEval logo</title>
  <desc id="desc">CourseEval wordmark with an AI-assisted assessment book mark.</desc>
  <defs>
    <linearGradient id="ce-bg" x1="28" y1="22" x2="198" y2="198" gradientUnits="userSpaceOnUse">
      <stop offset="0" stop-color="#0F766E"/>
      <stop offset="0.56" stop-color="#1D4ED8"/>
      <stop offset="1" stop-color="#111827"/>
    </linearGradient>
    <linearGradient id="ce-page" x1="66" y1="66" x2="168" y2="160" gradientUnits="userSpaceOnUse">
      <stop offset="0" stop-color="#FFFFFF"/>
      <stop offset="1" stop-color="#E0F2FE"/>
    </linearGradient>
  </defs>
  <rect width="760" height="220" rx="28" fill="#FFFFFF"/>
  <g transform="translate(28 22)">
    <rect x="0" y="0" width="176" height="176" rx="42" fill="url(#ce-bg)"/>
    <path d="M38 48c0-8.837 7.163-16 16-16h34v101H54c-8.837 0-16-7.163-16-16V48Z" fill="url(#ce-page)" opacity="0.96"/>
    <path d="M88 32h34c8.837 0 16 7.163 16 16v69c0 8.837-7.163 16-16 16H88V32Z" fill="#F8FAFC" opacity="0.92"/>
    <path d="M88 34v99" stroke="#1E40AF" stroke-width="5" stroke-linecap="round" opacity="0.45"/>
    <path d="M54 61h20M54 78h20M54 95h16" stroke="#0F766E" stroke-width="7" stroke-linecap="round" opacity="0.8"/>
    <path d="M57 114c10-12 25-15 39-8 15 8 29 4 38-10" fill="none" stroke="#38BDF8" stroke-width="4" stroke-linecap="round" opacity="0.78"/>
    <circle cx="57" cy="114" r="4" fill="#A7F3D0"/>
    <circle cx="96" cy="106" r="4" fill="#BFDBFE"/>
    <circle cx="134" cy="96" r="4" fill="#FDE68A"/>
    <rect x="106" y="85" width="9" height="29" rx="4.5" fill="#0F766E"/>
    <rect x="121" y="70" width="9" height="44" rx="4.5" fill="#2563EB"/>
    <rect x="136" y="55" width="9" height="59" rx="4.5" fill="#0F172A"/>
    <g opacity="0.95">
      <path d="M108 43h31M124 27v31M113 32l22 22M135 32l-22 22" stroke="#CFFAFE" stroke-width="4" stroke-linecap="round"/>
      <circle cx="124" cy="43" r="14" fill="none" stroke="#FACC15" stroke-width="4"/>
      <circle cx="124" cy="43" r="4" fill="#FFFFFF"/>
    </g>
    <path d="M52 127l21 19 49-56" fill="none" stroke="#FACC15" stroke-width="12" stroke-linecap="round" stroke-linejoin="round"/>
    <path d="M52 127l21 19 49-56" fill="none" stroke="#FFF7ED" stroke-width="5" stroke-linecap="round" stroke-linejoin="round" opacity="0.9"/>
  </g>
  <g transform="translate(238 60)">
    <text x="0" y="62" font-family="Inter, Segoe UI, Arial, sans-serif" font-size="58" font-weight="760" letter-spacing="0" fill="#111827">CourseEval</text>
    <text x="3" y="100" font-family="Inter, Segoe UI, Arial, sans-serif" font-size="22" font-weight="520" letter-spacing="0" fill="#475569">AI-assisted course insight, assessment, and growth</text>
    <rect x="3" y="122" width="244" height="6" rx="3" fill="#0F766E"/>
    <rect x="258" y="122" width="110" height="6" rx="3" fill="#2563EB"/>
    <rect x="379" y="122" width="64" height="6" rx="3" fill="#FACC15"/>
  </g>
</svg>
