<svg xmlns="http://www.w3.org/2000/svg" viewBox="0 0 256 256" role="img" aria-labelledby="title desc">
  <title id="title">CourseEval mark</title>
  <desc id="desc">A formal CourseEval icon combining an AI-assisted learning book, assessment bars, and a check path.</desc>
  <defs>
    <linearGradient id="ce-bg" x1="30" y1="24" x2="220" y2="232" gradientUnits="userSpaceOnUse">
      <stop offset="0" stop-color="#0F766E"/>
      <stop offset="0.55" stop-color="#1D4ED8"/>
      <stop offset="1" stop-color="#111827"/>
    </linearGradient>
    <linearGradient id="ce-page" x1="72" y1="70" x2="185" y2="174" gradientUnits="userSpaceOnUse">
      <stop offset="0" stop-color="#FFFFFF"/>
      <stop offset="1" stop-color="#E0F2FE"/>
    </linearGradient>
  </defs>
  <rect x="16" y="16" width="224" height="224" rx="52" fill="url(#ce-bg)"/>
  <path d="M64 74c0-10.493 8.507-19 19-19h45v129H83c-10.493 0-19-8.507-19-19V74Z" fill="url(#ce-page)" opacity="0.96"/>
  <path d="M128 55h45c10.493 0 19 8.507 19 19v91c0 10.493-8.507 19-19 19h-45V55Z" fill="#F8FAFC" opacity="0.92"/>
  <path d="M128 57v127" stroke="#1E40AF" stroke-width="6" stroke-linecap="round" opacity="0.45"/>
  <path d="M84 91h25M84 112h25M84 133h20" stroke="#0F766E" stroke-width="8" stroke-linecap="round" opacity="0.8"/>
  <path d="M90 154c13-15 31-19 49-10 18 9 35 4 46-12" fill="none" stroke="#38BDF8" stroke-width="5" stroke-linecap="round" opacity="0.78"/>
  <circle cx="90" cy="154" r="5" fill="#A7F3D0"/>
  <circle cx="139" cy="144" r="5" fill="#BFDBFE"/>
  <circle cx="185" cy="132" r="5" fill="#FDE68A"/>
  <rect x="149" y="121" width="12" height="37" rx="6" fill="#0F766E"/>
  <rect x="169" y="101" width="12" height="57" rx="6" fill="#2563EB"/>
  <rect x="189" y="82" width="12" height="76" rx="6" fill="#0F172A"/>
  <g opacity="0.95">
    <path d="M152 68h42M173 47v42M158 53l30 30M188 53l-30 30" stroke="#CFFAFE" stroke-width="5" stroke-linecap="round"/>
    <circle cx="173" cy="68" r="18" fill="none" stroke="#FACC15" stroke-width="5"/>
    <circle cx="173" cy="68" r="5" fill="#FFFFFF"/>
  </g>
  <path d="M80 165l26 24 63-72" fill="none" stroke="#FACC15" stroke-width="14" stroke-linecap="round" stroke-linejoin="round"/>
  <path d="M80 165l26 24 63-72" fill="none" stroke="#FFF7ED" stroke-width="6" stroke-linecap="round" stroke-linejoin="round" opacity="0.9"/>
</svg>
